<svg id="Layer_1" data-name="Layer 1" xmlns="http://www.w3.org/2000/svg" viewBox="0 0 913.33 670.14"><defs><style>.cls-1{fill:#42884c;}.cls-2,.cls-4{fill:#fff;}.cls-3{stroke:#fff;stroke-miterlimit:10;stroke-width:3px;}.cls-4{font-size:20.87px;}.cls-4,.cls-6{font-family:CopperplateGothic-Bold, Copperplate Gothic Bold;font-weight:700;}.cls-5,.cls-6{fill:red;}.cls-6{font-size:24.17px;}</style></defs><title>Pamniken Logo</title><g id="Heineken"><path class="cls-1" d="M864.14,607.39c-1.06-4-3.94-4.2-6.4-4.93l-32.65-9.73a33.29,33.29,0,0,1-7.67-3.46c-6.36-3.84-6.51-4.12.33-7.8,3.78-2,7.89-3.54,11.78-5.41,1.17-.56,3.7-.44,2.87-2.44-.74-1.8-2.78-1.48-4.48-.75-4.49,2-9.42,3.32-13.4,5.94-10.84,7.14-22.21,4-33.59,2.43-2.44-.34-3.53-1.91-4.18-3.89-1.68-5.11-3.5-10.19-5-15.35s.74-9.18,4.64-12.48c12.47-10.56,38.36-11.95,52-3,1.3.85,1.92,1.64,1.3,3.06-2.1,4.8,1.46,4.5,4.66,4.5,6.26,0,12.63-.7,18.5,2.14,3.48,1.68,7.14,2.88,7.47,7.76.18,2.66,3.54,4.45,5.72,6.41,7.63,6.89,7.66,7.19.58,14.56a91.4,91.4,0,0,1,22.1,19.81c2.9,3.67,2.75,6.17-1.3,8.8-5.63,3.65-11,7.68-16.59,11.38-8.66,5.71-18.26,8-28.7,5.79-3.77-.79-5.37-.26-6,3.71-1.17,7.17-2.48,7.79-10.18,7.86-12.82.1-23.5-4.18-31.35-13.74-3-3.6-5-3.25-8-.22-5,5-5.54,4.83-9.31-1-5.2-8.05-9-16.43-8.52-26.18.53-10.3,3.76-13.18,14.74-12.81,4.33.14,8,2.18,12,3.08,2.31.52,2.37,2.55,2.59,4.33.68,5.49,1.33,11,2,16.46.26,2.09.43,4.25,2.53,5.71,1.88-1.65,1.27-3.6,1.18-5.54-.23-4.63-.52-9.27-.33-13.89.21-5.37,1.79-6.26,7.16-4.54,14.42,4.62,28.94,8.91,43.88,11.82C857.5,606.38,860.48,606.79,864.14,607.39Z" transform="translate(-239.67 -48.86)"/><path class="cls-1" d="M673,614.18c3.38-3,6.6-5.91,9.91-8.74,1.65-1.41,3.35-3.43,5.88-2.38,2.33,1,1.57,3.39,1.73,5.27,1.13,13.11.75,26.41,5.6,39.06.31.81.6,1.63,1.27,3.48,2.45-3.64,1.9-6.66,1.44-9.7C697,629.5,696,617.78,697.58,606c.87-6.33,1.62-6.56,7.32-3.38s11.38,6.39,17.6,9.88c.15-4.33-1.7-7-5.1-9-4.71-2.7-9.32-5.56-14.12-8.11-3-1.6-4.35-3.7-4.14-6.94.24-3.55.23-7.13.24-10.69,0-4.26,2.3-5.59,6.61-5a60.11,60.11,0,0,1,20.47,6.37c1.57.82,2.93,2.35,5,1.94a1.39,1.39,0,0,0-.33-2.34c-8.33-5.26-16.07-11.65-25.93-14.2-5.06-1.31-7-3.84-8.07-8.31-3.06-12.8-2.95-13.22,10.41-17.24,13.87-4.16,27.58-5.12,41,1.55a23.05,23.05,0,0,1,7.56,6.37c1.39,1.67,1.77,3.15-.17,4.6-2.41,1.81-1.55,3,.54,4.53,8.57,6.08,9.19,15.63,11.7,24.29.76,2.63-1.88,3.62-3.92,4.57-3.23,1.5-7.87,2.13-9.41,4.54-1.8,2.8,3.46,4.7,4.57,7.74,3.56,9.77,4.19,19.51.8,29.39-.23.68-.56,1.33-.82,2-5.18,13.09-8.24,14.06-21.17,6.65-1.42-.82-2.73-1.8-5.12-3.39,1,8.52-.66,15.85-2.87,23.12-.89,2.93-1.59,5.61-6.09,3.88-2.68-1-3.44,1.51-4.48,3.13-4.89,7.64-9.44,15.47-16.12,22-2.73,2.66-5,3.22-8.14.47-6.66-5.78-14.77-10.1-20-17.33-.41-.55-1-1.27-1.64-1.37C658,663.23,653.47,651.45,649,639.63a43.5,43.5,0,0,1-1-4.73c-.42-1.68.65-4.27-1.12-4.92-2.29-.84-3.92,1.61-5.76,2.75-.78.49-1.3,1.32-2,1.86-8.39,6-14.52,4.4-17.18-4.79-5.2-18-3.9-35.38,6.84-51.48,2.6-3.91,2.83-6.66-1.27-9.43a16.7,16.7,0,0,1-2.16-2.47c-6.89-7-6.72-8.12.14-15.4,13.84-14.72,31.09-16.77,50-11.67,13.22,3.58,13.11,3.95,13.76,16.58a19.24,19.24,0,0,0,.32,3.73c.79,3.18-.57,4.61-3.71,6.07-8.29,3.87-17.21,6.83-24,13.16-2.29,2.14-4.63,4.22-6.87,6.41-1,1-2.76,2.12-1.18,3.52,1.28,1.15,2.35-.53,3.27-1.24a82.44,82.44,0,0,1,20.83-12,38.66,38.66,0,0,1,4.86-1.54c6.4-1.47,7.92-.2,7.38,6.05a7.62,7.62,0,0,0-.11,1.06c.44,9.18-2.63,16.33-11.07,22.08C672.26,607.79,672.2,610,673,614.18Z" transform="translate(-239.67 -48.86)"/><path class="cls-1" d="M557.25,576.2c5.2.83,10.42,1.58,15.61,2.53,1.52.28,3.92.1,3.93,2.23,0,1.6-2.1,1.91-3.45,2.4-11.89,4.26-23,10.27-35.31,13.6-1.54.42-3.39.55-4.34,3,6.34.14,11.87-1.69,17.47-2.89,8.89-1.91,18-3.38,26.14-7.42,2.77-1.37,4.14-.18,4.28,2.19a76.35,76.35,0,0,1-.24,10.14c-.18,2.44-1.31,5.91,1.8,6.33,2.38.32,2.6-3.46,3.09-5.61A118.8,118.8,0,0,0,588.47,590c.45-3.88,2.17-6,6.49-6.82,12.18-2.33,12.86-1.81,17.88,8.94,6.1,13.06,1.16,25.48-8.09,34.22-2.86,2.7-5,2.93-7-.65-1.78-3.24-3.33-3.16-5.5-.12-7.84,11-19.65,12.26-32.3,11.18-4.36-.37-3.93-3.41-3.22-6,1.14-4.15.18-5.68-4.63-4.58-10.87,2.49-20.67-.21-29.9-5.71A103.69,103.69,0,0,0,509.74,614c-4-1.73-5.47-4-3.93-8,3.1-8.14,6.75-15.94,14.3-21.43,2.08-1.51,2.74-2.63.39-4.54-7.24-5.88-5.88-9.31,2.71-14.92,6.22-4.06,13.69-5.28,21.13-6,3.87-.37,6-1,4.31-5.47-1.55-4,.67-6.52,5.28-6.83q3.42-.22,6.86-.18c3,0,5.83.15,5.38-4.08-.25-2.28,2-2.3,3.69-2.24,13.22.46,25,4.42,34.46,13.28,6.17,5.78,5.48,12.94,3.23,20.07-.86,2.71-3.5,3-6,3.12-8.56.31-17.09.68-25.59-1.16A39.65,39.65,0,0,0,557.25,576.2Z" transform="translate(-239.67 -48.86)"/><path class="cls-1" d="M471.79,569.22a65,65,0,0,0-7,.77c-2.79.58-4.18-.43-5.33-2.7-3.43-6.73-2.51-8.43,5.61-8.74,13.94-.53,26.54,2.11,34.9,13.94,1.33,1.88,3,3.23,5.59,3a6,6,0,0,1,6,3.34c.89,1.53,2.82,3,2.05,4.75-1,2.14-3.41,1-5.13.88-3.78-.23-5.7,1.38-6.31,4.69-.81,4.37-3.27,8-6.28,11.24-8,8.55-16.74,16.14-29.08,18.63-2.92.58-6.37,2.58-8.71-2-1.05-2-5-.08-7.48-1-2.86-1-7.81.11-6.61-5.13,1-4.31,3.85-5.4,8.53-4.1,4.87,1.35,10,2.55,15.16,1.14,1-.28,2.62-.13,2.55-1.58-.07-1.27-1.45-1.53-2.6-1.57-3.82-.11-7.64-.21-11.28-1.38-1.86-.6-4.84-.78-4.34-3.33s2.85-4.18,6-3.8c2.64.32,5.26.81,7.88,1.27,5.61,1,10.94-.42,16.26-1.71,1.35-.32,3.56-.92,3.1-2.54-.6-2.1-2.78-1.12-4.4-.85-.93.15-1.84.43-2.77.61-9.69,1.85-18.54.66-25.84-6.22-1.47-1.39-3.07-2.67-4.55-4-11.27-10.45-6.66-9.49,2.72-15.88,2-1.36,3.51-.76,4.77,1,1.06,1.51,2.54,3.14.26,4.6-4.24,2.69-1.9,4.49.68,6.49,7.13,5.54,15,7.62,23.88,4.36,3.38-1.24,6.81-3.14,6.48-7.25-.36-4.4-4.33-5.52-8-6.41A42.58,42.58,0,0,0,471.79,569.22Z" transform="translate(-239.67 -48.86)"/><path class="cls-1" d="M925.61,558.46a59.4,59.4,0,0,1,25.07,4.87c1.86.81,4.78,1.92,3.9,3.95-1.88,4.38,1.49,6.09,3.74,8.55,3.86,4.22,7.17,8.72,9,14.12,1.24,3.66.18,6-3.7,6.95-4.28,1-6.35,2.75-4.54,7.14,1.23,3-.35,4.83-3.28,6.42-6.58,3.56-13.61,4.1-20.94,4-5.22-.09-5-3.71-5.32-6.72-.47-3.8,2.89-3,5.16-3.12,3.6-.26,7.23-.2,10.81-.57,1.59-.17,3.93-.61,3.58-2.68-.4-2.46-2.63-1.34-4.16-1-10,2-19.27-.28-28.33-3.84a16.76,16.76,0,0,1-9.24-9.06c-.46-1-1-2-.27-3,.94-1.23,2.33-.84,3.66-.64,2.27.34,3.67,1.81,5,3.3,7.6,8.36,17.33,6.59,26.93,4.82,3.61-.66,3.36-3.24,2.43-5.92-3.44-9.88-12.37-15.51-25.33-15.51-4.29,0-7.91.15-8.55-5.24-.34-2.9.35-4.3,3.23-5.18A35.47,35.47,0,0,1,925.61,558.46Z" transform="translate(-239.67 -48.86)"/><path class="cls-1" d="M764.36,692.68c-7.52,0-13.73-1.35-18.19-6.5-1.14-1.32-3.72-3-1.38-4.92a4.75,4.75,0,0,1,6.29.1,17.27,17.27,0,0,0,10.74,4.41c3.77.27,5.24-1.22,4.49-4.8-2.48-12-13.6-13.8-22.3-10.69-4.17,1.49-5.76,6.85-3.89,12.23,1.56,4.51,4.1,8.75,8.75,10.83,5.26,2.35,6.29,5.63,4.51,10.37-1.24,3.3-1.22,7.94-5.17,9-4.28,1.12-7.17-2.72-9.72-5.5-9.35-10.15-13.42-26.11-5.59-38.81.89-1.45,1.41-2.73.59-4.48-1.89-4,1.62-6.73,3.38-9.59,1.38-2.25,3,0,3.55,1.39,1.38,3.58,3.86,4,7.62,3.65,12.78-1.22,23.66,2.43,31.81,12.11,1.54,1.83,3.32,3.46.82,6-1.6,1.6,0,3.42.76,5,2.27,4.58.41,7.09-4.37,8.34C772.64,691.87,768.19,692.82,764.36,692.68Z" transform="translate(-239.67 -48.86)"/><path class="cls-1" d="M822.85,704.46c-8-.83-14.46-7.42-19.91-15.12a28.62,28.62,0,0,1-3.57-7.83c-.88-2.72-2.08-4.7-5.17-5.79s-6.3-3.49-4.86-6.78c1.63-3.7,5.85-2.25,9.11-1.75,2.19.34,3.27,2.31,4.86,3.52a5.57,5.57,0,0,0,7.71-.64c2.25-2.39-.15-4.33-2-5.77-2.56-2-5.71-2.66-9-2.9-12.52-.9-24.39-3.61-34.24-11.48-2.39-1.91-5.62-3.68-3.68-7.44,1.21-2.36,1.05-6.07,3.92-6.76s3.69,3,5.35,4.77a44.35,44.35,0,0,0,21,12.33c6.56,1.77,13.09,3.61,19.66,5.35a12.4,12.4,0,0,1,8.49,6.59c2.57,5.24.73,9-5.14,10.74a12.28,12.28,0,0,1-2.21.54c-9.26.85-9.83,1.92-4.6,10.49a19,19,0,0,0,7,6.93c2.07,1.15,3.52,1.8,5.8-.45,3.45-3.42,10.87-1.84,13.29,2.26C837.75,700.71,834,704.6,822.85,704.46Z" transform="translate(-239.67 -48.86)"/><path class="cls-1" d="M597.41,698.92a30,30,0,0,1,1.38-9.48c1.15-3.57,3.72-4.63,7.37-4.46,2.76.13,4.39,1,3.78,3.94a9.72,9.72,0,0,0-.4,2.1c.06,2.09-1.76,5.42,1.63,5.76,3,.3,2.16-3.22,2.57-5.11,1.27-5.88,5.26-10.18,9.22-14.51a6.87,6.87,0,0,1,2.91-1.59c1.81-.57,4.2-1.27,5.34.27,1.4,1.87-1,3.14-2.25,4.25-6.28,5.37-7.74,11.88-5.87,19.45,1,4.11,3.34,5.45,6.71,2.79,5.32-4.19,11.13-8.32,12.25-15.44.55-3.5,2.51-5.46,6.05-4.69s2,3.7,1.56,5.81c-3,13.79-18.62,28.11-33.24,30.73-4.1.73-7.18.12-8.18-4.28-.31-1.36-.66-3.29-2.38-3.34C596.67,710.82,597.39,704.69,597.41,698.92Z" transform="translate(-239.67 -48.86)"/><path class="cls-1" d="M554.94,697.45c-.36,0-.93-.08-1.49-.16-3.53-.49-6.84-1.4-8-5a4.18,4.18,0,0,1,2.62-5.35c3.45-1.48,7.66-3.43,10.66-.44,3.46,3.44,5.63,1.48,8.15-.36a22,22,0,0,0,7.72-11c1-2.79.12-3.93-2.91-4.28a35.26,35.26,0,0,1-5.45-1.5c-4.27-1.22-7.87-3-7.53-8a11.48,11.48,0,0,1,8.94-10.59,128.87,128.87,0,0,1,12.92-2.14c12.81-1.35,23.18-6.39,30.21-16.8.6-.9,1.34-1.94,2.62-1.75s1.36,1.5,1.65,2.52c2.25,7.84,1.29,9.68-5.84,14.15-8.26,5.16-17.65,6.23-27.1,7.33-3.77.43-7.53.93-10.45,3.69-2,1.94-3.79,4.23-1.41,6.43s5.7,2.34,8-.49a10.1,10.1,0,0,1,6.36-4.1c3.32-.59,6.39-.1,7.55,3.13a5,5,0,0,1-3.72,6.85c-5.4,1.24-6.75,4.8-8.27,9C575.94,690.2,565.81,697.62,554.94,697.45Z" transform="translate(-239.67 -48.86)"/><path class="cls-1" d="M906.42,571.83a5.5,5.5,0,0,1-1.34,3.42c-5.93,8.76-2.81,19.08,7.17,23.73,2.39,1.11,4.86,2.07,7.31,3,1.45.57,2.76,1.26,3.36,2.7,1.59,3.85,3.74,8.46,1.11,11.68-2.23,2.74-7,.33-10-1-11.72-5.17-20.08-13.41-23.21-25.44-.92-3.55-2-5.83-6.31-6-6.16-.31-7.56-5.26-9.6-9.42-.75-1.54.07-2.37,1.86-2.28a8.81,8.81,0,0,1,1.13.17c11.72,1.68,11.72,1.68,22.81-3.85C904.68,566.53,906.57,567.63,906.42,571.83Z" transform="translate(-239.67 -48.86)"/><path class="cls-1" d="M629.9,660.28c6.54,2.84,9-1.62,10.94-7a18.66,18.66,0,0,1,2.22-3.72c.51-.76,1.39-1.75,2.21-1.32,2.75,1.47,3.67,4.38,5.34,6.69a2.83,2.83,0,0,1-.91,4.27c-5.62,3.36-5.93,7.48-2.68,12.52a7.65,7.65,0,0,1,.74,4.14,3.37,3.37,0,0,1-2.6,3.19c-2,.59-2.55-.91-3.29-2.18-4.18-7.11-9.37-8.76-17.31-5.41-3.32,1.39-6.71,3.2-8.59,6-2.83,4.18-6.54,4.85-11.19,4.47-5.53-.46-6.57-2.16-3.91-6.89C605.53,666.75,617.74,660.35,629.9,660.28Z" transform="translate(-239.67 -48.86)"/><path class="cls-1" d="M783,705.45c.05,1.67.21,4.33-3.21,5.71a3.64,3.64,0,0,0-1.87,2.51c-.81,6.18-4.88,5.77-9.54,4.34-1.81-.55-3.6-1.16-5.42-1.69-5-1.46-7.28-4.2-5-9.19,1.4-3.12-.86-7.35,2.1-9.64s7-.46,10.55-1c.56-.09,1.13-.11,1.7-.2C781.9,694.66,782.89,695.41,783,705.45Z" transform="translate(-239.67 -48.86)"/><path class="cls-1" d="M436.76,607.44a30.8,30.8,0,0,1-14.12-6.59c-1.63-1.29-2.21-3-1.14-4.79,3.08-5.14,6.53-10,12.09-13.2,2.85-1.64,5.35-1.72,7.29,1.24.2.3.44.58.67.86,2.68,3.14,8.52,5.54,7.62,9.33-1,4.3-5.44,7.9-8.41,11.79A3.59,3.59,0,0,1,436.76,607.44Z" transform="translate(-239.67 -48.86)"/><path d="M695.82,512.82q-113.74,0-227.51,0c-8.6,0-8.59,0-8.6,8.28,0,4.81-.17,9.64,0,14.44.17,4-1.64,5.51-5.8,5.08-10.59-1.11-21.19-2.11-31.79-3.18-31.79-3.22-63.56-6.68-95.38-9.58-18.17-1.66-36.06-5-54.2-6.74-4.63-.43-7.4-2.22-9.07-6.57-7.55-19.62-15.41-39.13-23.27-58.64-1.18-2.91-.43-4.85,1.63-7.19,20.76-23.55,23.9-49.57,12.09-77.63-2.55-6-5.77-11.81-10.48-16.45-4.2-4.15-3.71-8.06-1.83-12.64,2.79-6.82,5.38-13.71,8.12-20.55,4.41-11,9.55-21.84,13.09-33.09,2.36-7.5,7.84-9.57,14.52-10.3,27.41-3,54.85-5.71,82.29-8.5,30.28-3.08,60.56-6.09,90.83-9.24,8.84-.92,9.2-.8,9.22,7.31,0,5,.13,10,0,15-.11,3.35,1.07,5.11,4.9,4.79,1.51-.12,3.05,0,4.57,0H923c9.47,0,9.47,0,9.48-9.12,0-4.46.12-8.92,0-13.38-.12-4,1.81-5.42,6-5q20.41,2.29,40.86,4.39,40.86,4.15,81.75,8.23c18,1.81,36,3.46,53.92,5.5,7.15.81,12.56,3.32,15.28,11,6.46,18.26,14.1,36.16,21.47,54.14,1.75,4.28,1.23,7.37-2,11.1-24.09,28.2-23.63,66.56.92,94.06,2.2,2.47,3,4.66,1.73,7.74q-12.24,30.25-24.24,60.59c-1.21,3.07-3.63,3.8-6.59,4.17-21.46,2.66-42.84,5.91-64.41,7.88-23.11,2.13-46.17,4.64-69.26,7-15.51,1.58-31,3.28-46.55,4.71-8.5.78-8.82.33-8.85-7.46,0-5-.18-10,0-15,.17-4-1.65-5.3-5.78-5.23-10.66.16-21.34.05-32,.05Zm404.91-14.61c-3.61,2.55-6.28,3.57-9.36,3.8q-50.65,3.78-101.31,7.61-18.49,1.41-37,3c-7,.6-4.17,5.7-4.34,9.09-.19,3.91,3,3.27,5.71,2.81,8.76-1.5,17.54-2.86,26.43-3.72,39.94-3.85,79.84-8.21,119.83-11.56,10.61-.89,16.44-3.8,19.44-14,3.88-13.17,10-25.78,15.22-38.58,1.1-2.67.48-4.58-1.25-6.84-22.41-29.34-22.58-68.56-.31-98.17,2.41-3.21,2.7-5.91,1.21-9.37-4.63-10.75-10.54-21.26-13.2-32.43-3.55-14.91-13.47-17.75-27.61-18.84-34.32-2.67-68.55-6.44-102.77-10.15-12.61-1.37-25.07-4-37.78-4.78-1.59-.1-3.39-1-4.66.81-3,4.36.37,11.08,5.93,11.52q43.53,3.42,87.07,6.72,26.74,2.07,53.49,4.24c1.66.13,4.1,0,4.14,2,0,2.29-2.48,1.59-4,1.72s-3.43,0-5.14,0H302.79c-1.71,0-3.44.13-5.14,0s-4.49.74-4.52-1.82c0-1.93,2.52-1.75,4.17-1.88,13.09-1.07,26.17-2.16,39.26-3.16q44.67-3.39,89.36-6.73c4.55-.34,9.11-.68,13.64-1.22,7-.83,4.51-6,4.6-9.65.1-4.46-3.66-2.65-5.88-2.36-9.94,1.3-19.92,2.23-29.86,3.78-18.92,3-38.19,4-57.3,5.92-23.28,2.37-46.54,4.89-69.81,7.25a5.46,5.46,0,0,0-5,3.75q-9.6,23.48-19.21,46.94c-1,2.55-.61,4.68,1.35,6.89a62,62,0,0,1,12.65,22.58c8.49,26.46,5.9,51.55-11.26,74.47-3.38,4.52-3.36,8.11-1.44,12.74,5.88,14.11,11.55,28.31,17.23,42.49,1.17,2.92,2.86,4.69,6.51,5,13.26,1.22,26.48,2.74,39.73,4.07,38.56,3.88,77.27,6.49,115.61,12.21,2.75.41,6.22,2.18,6.78-2.77.77-6.83,0-8.57-5.73-9.08-9.85-.89-19.73-1.49-29.59-2.25q-53.49-4.1-107-8.19c-3.27-.25-6.34-.66-9.4-3.86Z" transform="translate(-239.67 -48.86)"/><path d="M1122.55,451.07c-22.13-33.54-21.65-67.26-.48-101,1.8-2.87,2.49-5.23,1-8.43a239.19,239.19,0,0,1-9.6-22.32c-2.1-6-5.77-7.49-12.25-7.48q-202.32.27-404.64.14H403.94q-57.43,0-114.87-.05c-3.94,0-7,.47-8.6,4.46-3.59,8.83-7.46,17.55-11.29,26.28a5.5,5.5,0,0,0,.56,6.05c10.39,13.63,15,29,16,45.56,1.25,19.77-2.39,38.4-14.25,55.05-3,4.17-2.95,7.69-1,11.9,2.79,6.05,5.54,12.14,8,18.32,3.8,9.62,3.68,9.66,14.52,9.66h807c1.91,0,3.82-.09,5.72,0,3.12.14,4.91-1.29,6-3.92,3.84-8.92,7.77-17.81,11.66-26.72C1124.6,455.93,1124.26,453.65,1122.55,451.07Z" transform="translate(-239.67 -48.86)"/><g id="Pampers"><g id="P"><path class="cls-2" d="M446.21,464.88c-1.69,0-3.24-.07-4.75-.21-6.17-.58-10-3.38-11.86-8.56a64.16,64.16,0,0,1-2.28-9.16c-1.21-6.44-2.16-12.87-2.85-17.76-.5-3.51-.93-7.09-1.34-10.55l-.37-3.06c-.44-3.62-.89-7.35-1.28-11s-.66-7.16-.87-9.84c-.21-2.83-.4-5.67-.59-8.5l-.17-2.57a3,3,0,0,0-.35-1.27v-18a4.86,4.86,0,0,0,.69-2.32V362a48.6,48.6,0,0,1,7.2-21.35c7-10.83,18-17.36,32.87-19.42a73.74,73.74,0,0,1,9.89-.7,59.86,59.86,0,0,1,12.61,1.31c10.6,2.28,18.61,7.47,23.8,15.45a34.72,34.72,0,0,1,5.7,16.47,51.43,51.43,0,0,1-6.79,30.33,44.51,44.51,0,0,1-8.85,10.71c-8.44,7.59-19.38,12.88-33.44,16.16-3.27.77-6.91,1.43-11.47,2.08a2.67,2.67,0,0,0-1.83.71,2.08,2.08,0,0,0-.17,1.57c.47,3,.95,6,1.42,9.07s.91,5.82,1.36,8.73q.74,4.7,1.44,9.41l1.11,7.25c.51,3.3,1,6.59,1.54,9.89a4.87,4.87,0,0,1,0,2.05,3.47,3.47,0,0,1-2.83,2.54l-.35.09a11.08,11.08,0,0,1-1.93.36C449.55,464.81,447.82,464.88,446.21,464.88Zm21.48-124.27c-5.94,0-10.82,2-14.49,6s-5.18,8.76-6.15,12.86a52.62,52.62,0,0,0-1.19,14.3,87.08,87.08,0,0,0,.46,11.77c.25,2.55.62,5,1,7.13.14.86.27,1.67,1.31,1.67h0a8.24,8.24,0,0,0,1.32-.18,73.64,73.64,0,0,0,18.9-6c7.93-3.9,13.25-8.94,16.24-15.4a28.52,28.52,0,0,0,2.39-8.87,24.06,24.06,0,0,0-1.95-13.43c-2.67-5.69-7.63-9-14.75-9.73A29,29,0,0,0,467.69,340.61Z" transform="translate(-239.67 -48.86)"/><path d="M470.16,320v1a60.15,60.15,0,0,1,12.5,1.29c10.47,2.26,18.38,7.38,23.5,15.24a34.48,34.48,0,0,1,5.62,16.24,51,51,0,0,1-6.73,30,43.75,43.75,0,0,1-8.75,10.58c-8.38,7.54-19.24,12.79-33.22,16.06-3.26.75-6.89,1.41-11.43,2.06a3,3,0,0,0-2.16.91,2.5,2.5,0,0,0-.26,1.95q.7,4.54,1.42,9.09c.45,2.9.91,5.8,1.36,8.7l1.44,9.4c.32,2.1.63,4.19,1,6.29l.14.9c.5,3.27,1,6.64,1.55,10a4.43,4.43,0,0,1,0,1.85,3,3,0,0,1-2.47,2.19l-.35.08a10.89,10.89,0,0,1-1.85.35c-1.92.13-3.63.19-5.23.19s-3.21-.06-4.7-.2c-6-.56-9.7-3.25-11.43-8.22a62.19,62.19,0,0,1-2.26-9.09c-1.21-6.43-2.16-12.86-2.86-17.74-.49-3.52-.92-7.11-1.34-10.58l-.31-2.56-.05-.45c-.44-3.61-.9-7.35-1.28-11s-.66-7.13-.87-9.82c-.22-2.85-.41-5.75-.59-8.56l-.17-2.51a3.54,3.54,0,0,0-.35-1.35v-17.7a5.45,5.45,0,0,0,.68-2.42V362a48.34,48.34,0,0,1,7.13-21.14c6.89-10.7,17.83-17.16,32.52-19.19a72.61,72.61,0,0,1,9.82-.7v-1m-24.8,53.76a87.71,87.71,0,0,0,.46,11.83c.25,2.56.63,5.05,1,7.15.13.84.33,2.1,1.8,2.1a8.18,8.18,0,0,0,1.42-.19,74.44,74.44,0,0,0,19-6c8-3.95,13.43-9.07,16.47-15.64a29.21,29.21,0,0,0,2.44-9,24.74,24.74,0,0,0-2-13.7c-2.71-5.78-7.95-9.24-15.15-10a27.76,27.76,0,0,0-3.11-.17c-6.09,0-11.09,2.07-14.85,6.16s-5.29,8.92-6.28,13.09a52.92,52.92,0,0,0-1.2,14.4M470.16,320a72.49,72.49,0,0,0-10,.71c-15,2.08-26.16,8.65-33.23,19.64a49.2,49.2,0,0,0-7.28,21.57,4.44,4.44,0,0,1-.7,2.34v18.25a2.62,2.62,0,0,1,.36,1.17c.24,3.69.47,7.39.76,11.08.25,3.28.52,6.57.87,9.85.4,3.83.86,7.66,1.33,11.49.53,4.39,1,8.78,1.65,13.16.85,5.94,1.75,11.87,2.86,17.78a65.32,65.32,0,0,0,2.3,9.24c1.77,5.08,5.64,8.27,12.28,8.88,1.6.15,3.2.21,4.8.21,1.77,0,3.53-.07,5.3-.19a14.48,14.48,0,0,0,2.36-.46,3.94,3.94,0,0,0,3.2-2.9,5.07,5.07,0,0,0,0-2.26c-.58-3.62-1.13-7.24-1.68-10.86-.81-5.23-1.59-10.46-2.4-15.69-.92-5.93-1.86-11.86-2.78-17.79-.2-1.28,0-1.49,1.57-1.72,3.88-.55,7.73-1.2,11.51-2.08,13-3,24.51-8,33.67-16.28a45,45,0,0,0,8.95-10.83,51.65,51.65,0,0,0,6.85-30.62A35.07,35.07,0,0,0,507,337c-5.24-8.05-13.25-13.33-24.12-15.66A59.9,59.9,0,0,0,470.16,320Zm-21.57,73.84c-.58,0-.67-.31-.82-1.25-.37-2.36-.72-4.73-.95-7.1a88,88,0,0,1-.46-11.73,52.56,52.56,0,0,1,1.17-14.17c1.07-4.51,2.59-8.89,6-12.64,3.67-4,8.48-5.84,14.12-5.84a28,28,0,0,1,3,.16c7.06.76,11.83,4.08,14.35,9.44a23.74,23.74,0,0,1,1.9,13.16,28.29,28.29,0,0,1-2.34,8.72c-3.08,6.63-8.63,11.53-16,15.16a73.79,73.79,0,0,1-18.77,5.92,8.21,8.21,0,0,1-1.23.17Z" transform="translate(-239.67 -48.86)"/></g><g id="a"><path class="cls-2" d="M553.2,456a34.74,34.74,0,0,1-8.19-.88c-5.38-1.29-8-4-8.21-8.55,0-.67,0-1.34,0-2,0-.32,0-1.4,0-1.4l-1.15-.11-.74.88a33.46,33.46,0,0,1-2.8,3.07,31.19,31.19,0,0,1-17.92,8.19,32.78,32.78,0,0,1-3.8.22,27.33,27.33,0,0,1-14.59-4.08c-6.29-3.89-10.05-9.34-11.16-16.18a20,20,0,0,1,4.12-15.8c2.53-3.32,6.31-6.14,11.55-8.61,5.65-2.65,12.27-4.5,20.85-5.8a126.83,126.83,0,0,1,14.45-1.23c1.74-.07,2.08-.2,2.4-1.75.82-3.9-1.24-6.75-5.81-8a24.5,24.5,0,0,0-6.37-.91l-2.69,0-2.2,0h-.16a5,5,0,0,1-3.85-1.54c-2.21-2.45-4.14-6.23-.78-10.41a9.58,9.58,0,0,1,4.91-3A30.47,30.47,0,0,1,530,376.9l1.62,0a39.29,39.29,0,0,1,12.22,2.16,22.08,22.08,0,0,1,14.1,14.05,33.27,33.27,0,0,1,1.82,11.11c0,10.54,0,21.26,0,31.63q0,7,0,14a12.77,12.77,0,0,1-.49,3.62c-.47,1.58-1.53,2.33-3.45,2.42C554.94,456,554.07,456,553.2,456Zm-17.93-39.27a24.51,24.51,0,0,0-2.74.21l-1,.11c-6.42.65-11.36,2.09-15.53,4.51-5.82,3.37-8,8.31-6.24,13.91,1,3,3.47,4.44,7.86,4.44a21.74,21.74,0,0,0,11.94-4.3c6.66-5,7.91-11.82,8.26-17.16a1.53,1.53,0,0,0-.29-1.19,2.23,2.23,0,0,0-1.64-.51C535.7,416.71,535.49,416.71,535.27,416.71Z" transform="translate(-239.67 -48.86)"/><path d="M530,377.4c.54,0,1.07,0,1.6,0a38.92,38.92,0,0,1,12.07,2.13,21.61,21.61,0,0,1,13.8,13.75,32.77,32.77,0,0,1,1.79,10.94c0,10.53,0,21.24,0,31.6q0,7,0,14a12.2,12.2,0,0,1-.47,3.48c-.41,1.36-1.3,2-3,2.06-.9,0-1.77.06-2.59.06a33.87,33.87,0,0,1-8.08-.87c-5.12-1.23-7.61-3.8-7.82-8.08,0-.65,0-1.3,0-2,0-.32,0-.64,0-1v-.91l-.91-.08-.31,0h-.13l-.52-.05-.33.4-.58.68a29.55,29.55,0,0,1-20.38,11.08,32.06,32.06,0,0,1-3.75.22,26.72,26.72,0,0,1-14.32-4c-6.17-3.81-9.85-9.14-10.94-15.83a19.45,19.45,0,0,1,4-15.41c2.51-3.31,6.13-6,11.37-8.46,5.6-2.64,12.18-4.47,20.7-5.76a126.26,126.26,0,0,1,14.4-1.23c1.92-.07,2.49-.35,2.87-2.15.87-4.13-1.37-7.27-6.16-8.61a24.73,24.73,0,0,0-6.51-.93l-2.67,0-2.23,0h-.14a4.52,4.52,0,0,1-3.49-1.38c-2.08-2.3-3.9-5.85-.76-9.76a9.1,9.1,0,0,1,4.67-2.81A29.79,29.79,0,0,1,530,377.4m-12.33,63h.08a22.22,22.22,0,0,0,12.16-4.4c6.82-5.17,8.11-12.08,8.46-17.53a2.09,2.09,0,0,0-.41-1.56,2.71,2.71,0,0,0-2-.67l-.67,0a23.17,23.17,0,0,0-2.8.22l-1,.1c-6.49.66-11.49,2.11-15.73,4.58-6,3.45-8.31,8.73-6.47,14.49,1.05,3.27,3.7,4.79,8.34,4.79m12.33-64a31.07,31.07,0,0,0-9.06,1.19,10.15,10.15,0,0,0-5.16,3.14c-3,3.76-2.25,7.69.8,11.06a5.52,5.52,0,0,0,4.23,1.71h.16l2.21,0,2.66,0a23.83,23.83,0,0,1,6.25.89c4.3,1.21,6.22,3.82,5.45,7.45-.26,1.23-.33,1.29-1.93,1.35a130.26,130.26,0,0,0-14.51,1.24c-7.34,1.11-14.46,2.77-21,5.84-4.71,2.22-8.85,5-11.74,8.76a20.41,20.41,0,0,0-4.22,16.18c1.1,6.73,4.7,12.38,11.4,16.52a27.71,27.71,0,0,0,14.85,4.16,32.78,32.78,0,0,0,22.06-8.55,40.37,40.37,0,0,0,3.41-3.79l.44,0c0,1,0,2,0,3,.24,4.74,3,7.66,8.59,9a35.68,35.68,0,0,0,8.31.89q1.32,0,2.64-.06c2.17-.11,3.39-1,3.91-2.77a13.44,13.44,0,0,0,.51-3.77c0-15.21,0-30.43,0-45.64A33.88,33.88,0,0,0,558.38,393,22.53,22.53,0,0,0,544,378.62a40.16,40.16,0,0,0-12.37-2.19c-.55,0-1.09,0-1.64,0Zm-12.33,63c-4.25,0-6.49-1.3-7.39-4.09-1.62-5.07.17-9.94,6-13.33,4.58-2.66,9.82-3.88,15.33-4.44,1.22-.12,2.44-.32,3.67-.32l.61,0c1.21.07,1.53.23,1.47,1.16-.42,6.32-2.08,12.26-8.07,16.8a21.14,21.14,0,0,1-11.61,4.2Z" transform="translate(-239.67 -48.86)"/></g><g id="m"><path class="cls-2" d="M589.53,457.83a24.94,24.94,0,0,1-4.58-.48c-6.08-1.1-10.4-4.11-12.86-9a17.52,17.52,0,0,1-2-7.93q0-25.86,0-51.71a9.32,9.32,0,0,1,4-7.62,19.32,19.32,0,0,1,12-4h.46c2.63.05,4.43,1.16,5.2,3.2a11.66,11.66,0,0,1,.67,4.47c0,.83,0,1.66,0,2.5V389l.54,0a2.6,2.6,0,0,0,1.77-.84c.07-.07.13-.14.2-.2A30,30,0,0,1,611.53,381a43.48,43.48,0,0,1,4.5-.23c7.51,0,14,2.09,19.31,6.23a16.55,16.55,0,0,1,2.57,2.67,1.47,1.47,0,0,0,1.12.63,1.54,1.54,0,0,0,1.08-.54,35.81,35.81,0,0,1,4.22-3.57,27.35,27.35,0,0,1,16.32-5.39l1.7,0a41.46,41.46,0,0,1,8.42.71c7.9,1.61,13.55,5.58,16.81,11.8a26.5,26.5,0,0,1,3,12.23c.09,12.11.07,24.42.06,36.33V451c0,2.48-1,3.37-4.12,3.79a33.13,33.13,0,0,1-4.29.29,28.76,28.76,0,0,1-6.66-.77c-4.55-1.07-7.62-3.64-9.13-7.63A24.17,24.17,0,0,1,665,438c0-8.17,0-16.35,0-24.53v-3.6a13.75,13.75,0,0,0-.53-4.39c-1.23-3.76-3.93-5.58-8.26-5.58h-.38a22.62,22.62,0,0,0-4.92.52c-4.42,1.1-7.43,4.11-7.84,7.85a49.81,49.81,0,0,0-.36,5.83q0,12.76,0,25.53v6.26c0,3.59-1.88,5.4-6.08,5.85a25.79,25.79,0,0,1-2.88.16c-8.28,0-13.82-3.83-15.22-10.51a20.14,20.14,0,0,1-.44-4.13q0-9,0-18v-9.27a13.39,13.39,0,0,0-1.16-5.73c-1.24-2.68-3.66-4.15-7.22-4.36-.5,0-1-.05-1.5-.05a14.34,14.34,0,0,0-6.85,1.52,10.41,10.41,0,0,0-5.44,6.93,13.26,13.26,0,0,0-.43,3.3c0,1.09,0,2.18,0,3.27-.05,3.57-.1,7.26.07,10.9.26,5.46.23,11,.2,16.41,0,3.44,0,7,0,10.49a9.19,9.19,0,0,1-.15,2c-.36,1.81-1.12,2.45-3.39,2.85A15.34,15.34,0,0,1,589.53,457.83Z" transform="translate(-239.67 -48.86)"/><path d="M586.13,377.68h.45c2.44.05,4,1,4.75,2.88a11.3,11.3,0,0,1,.63,4.28c0,.83,0,1.67,0,2.51v2.21l1.07-.07a3,3,0,0,0,2.08-1l.19-.16a29.41,29.41,0,0,1,16.29-6.81,42.54,42.54,0,0,1,4.45-.23,30.15,30.15,0,0,1,19,6.12,16.5,16.5,0,0,1,2.49,2.6,1.93,1.93,0,0,0,1.5.81,2,2,0,0,0,1.44-.69,36.93,36.93,0,0,1,4.16-3.52,26.81,26.81,0,0,1,16-5.29l1.71,0a41.1,41.1,0,0,1,8.31.7c7.85,1.6,13.24,5.38,16.47,11.54a26,26,0,0,1,2.91,12c.09,12.06.07,24.32.06,36.18q0,4.65,0,9.3c0,2.07-.56,2.88-3.69,3.29a32,32,0,0,1-4.22.29,28.91,28.91,0,0,1-6.55-.75c-4.43-1.06-7.3-3.45-8.77-7.33A23.65,23.65,0,0,1,665.5,438c0-8.15,0-16.43,0-24.45V409.9a14.19,14.19,0,0,0-.55-4.54c-1.31-4-4.17-5.93-8.75-5.93h-.38a23.07,23.07,0,0,0-5,.53c-4.63,1.16-7.78,4.33-8.22,8.29a50.48,50.48,0,0,0-.36,5.88c0,8.46,0,17.07,0,25.4v6.39c0,3.33-1.68,4.93-5.64,5.35a24.61,24.61,0,0,1-2.82.16c-8,0-13.39-3.69-14.73-10.12a19.16,19.16,0,0,1-.43-4q0-8.88,0-17.74v-9.49a13.88,13.88,0,0,0-1.2-5.94c-1.32-2.86-3.9-4.42-7.65-4.65-.53,0-1-.05-1.53-.05a14.77,14.77,0,0,0-7.08,1.58,10.91,10.91,0,0,0-5.7,7.25,14.22,14.22,0,0,0-.44,3.41c0,1.09,0,2.18,0,3.26-.05,3.58-.1,7.29.07,10.94.26,5.45.23,11,.2,16.39,0,3.43,0,7,0,10.49a8.86,8.86,0,0,1-.14,1.91c-.3,1.48-.79,2.07-3,2.46a14.25,14.25,0,0,1-2.58.22,25,25,0,0,1-4.5-.47c-5.91-1.07-10.11-4-12.49-8.68a17,17,0,0,1-1.9-7.71c0-18.32,0-36.42,0-51.71a8.83,8.83,0,0,1,3.84-7.22,18.79,18.79,0,0,1,11.65-3.86m0-1a19.7,19.7,0,0,0-12.26,4.07,9.77,9.77,0,0,0-4.23,8q0,25.85,0,51.71a18,18,0,0,0,2,8.16c2.47,4.87,6.8,8.05,13.21,9.21a26.15,26.15,0,0,0,4.67.49,15.11,15.11,0,0,0,2.75-.24c2.45-.43,3.4-1.22,3.8-3.24a10.1,10.1,0,0,0,.16-2.12c-.14-9,.2-17.94-.22-26.92-.22-4.71-.07-9.43,0-14.14a13.06,13.06,0,0,1,.41-3.17,10,10,0,0,1,5.19-6.62,13.92,13.92,0,0,1,6.62-1.46c.48,0,1,0,1.47.05,3.32.2,5.62,1.52,6.8,4.07a13,13,0,0,1,1.11,5.52q0,13.6,0,27.22a20.16,20.16,0,0,0,.45,4.24c1.56,7.47,8,10.91,15.71,10.91a26.54,26.54,0,0,0,2.93-.16c4.57-.49,6.53-2.57,6.53-6.35q0-15.9,0-31.79a50.49,50.49,0,0,1,.35-5.77c.4-3.56,3.27-6.38,7.47-7.43a22.13,22.13,0,0,1,4.81-.5h.36c4.3,0,6.68,1.83,7.8,5.24a13.44,13.44,0,0,1,.5,4.23c0,9.38,0,18.76,0,28.14a25,25,0,0,0,1.43,8.86c1.5,3.94,4.51,6.76,9.48,7.94a29.27,29.27,0,0,0,6.78.78,31.8,31.8,0,0,0,4.35-.3c3.41-.45,4.55-1.54,4.56-4.28,0-15.16.06-30.32-.05-45.48a26.94,26.94,0,0,0-3-12.46c-3.3-6.3-8.93-10.38-17.16-12.06a42.6,42.6,0,0,0-8.51-.72l-1.72,0A27.7,27.7,0,0,0,644,385.83a38.58,38.58,0,0,0-4.28,3.62,1.06,1.06,0,0,1-.72.39,1,1,0,0,1-.73-.45,17.18,17.18,0,0,0-2.65-2.75c-5.65-4.41-12.31-6.33-19.62-6.33-1.49,0-3,.08-4.55.23a30.51,30.51,0,0,0-16.84,7,2.45,2.45,0,0,1-1.69.92c0-1.24,0-2.43,0-3.63a12.21,12.21,0,0,0-.7-4.66c-.85-2.23-2.81-3.46-5.66-3.52Z" transform="translate(-239.67 -48.86)"/></g><g id="p-2" data-name="p"><path class="cls-2" d="M708.42,481.5l-.21-.09a4.21,4.21,0,0,0-.78-.29c-4-.95-6.25-3.28-6.84-7.11a36.32,36.32,0,0,1-.37-5.54V447c0-12.31,0-25,0-37.57,0-7.17.91-12.58,2.84-17.54a24,24,0,0,1,6.76-9.79,26.33,26.33,0,0,1,12.87-5.74,63.33,63.33,0,0,1,10.73-.95A53.56,53.56,0,0,1,750.09,378c9.3,3,15.74,8.79,19.14,17.13a24.19,24.19,0,0,1,1.88,10c-.29,8.41-1.89,15.08-5,21-4.16,7.83-10.94,14-20.14,18.48a71.41,71.41,0,0,1-21.61,6.25c-2.21.31-2.65.55-2.65,2.67,0,3.85,0,19.26,0,23.12a20.66,20.66,0,0,1-.11,2.07,2.84,2.84,0,0,1-2.54,2.56,5.1,5.1,0,0,0-.55.19l-.11.05Zm13.28-62.17v12.26c0,.38,0,.77,0,1.15.11,1.22.57,1.65,1.77,1.65h.4a26.1,26.1,0,0,0,2.82-.35c9-1.45,15.47-5.52,19.31-12.1,2.75-4.73,4-10,3.92-16.69-.08-6.42-5-11.05-12.53-11.79-.83-.08-1.64-.12-2.42-.12-6.58,0-11,2.89-12.41,8.14a22.46,22.46,0,0,0-.86,6q0,4.2,0,8.4v3Z" transform="translate(-239.67 -48.86)"/><path d="M733.47,374.94v1a53.16,53.16,0,0,1,16.46,2.56c9.29,3,15.45,8.53,18.84,16.85a23.7,23.7,0,0,1,1.84,9.76c-.29,8.34-1.87,14.94-5,20.77-4.12,7.73-10.82,13.87-19.92,18.26a70.73,70.73,0,0,1-21.45,6.21c-2.43.33-3.09.77-3.09,3.16v11.31q0,5.9,0,11.81a19.84,19.84,0,0,1-.11,2c-.08.77-.4,1.72-2.15,2.13a3.87,3.87,0,0,0-.63.21h-9.74l-.12-.05a5,5,0,0,0-.86-.31c-3.85-.91-5.91-3-6.46-6.71a34,34,0,0,1-.37-5.46V447c0-12.3,0-25,0-37.53,0-7.11.9-12.46,2.81-17.35a23.31,23.31,0,0,1,6.62-9.6,25.9,25.9,0,0,1,12.62-5.63,63.41,63.41,0,0,1,10.65-.94v-1m-12.25,43.39h0v13.25c0,.39,0,.79,0,1.2a2,2,0,0,0,2.26,2.11l.42,0a24.41,24.41,0,0,0,2.88-.35c9.13-1.47,15.75-5.62,19.66-12.34,2.8-4.81,4.07-10.19,4-16.94s-5.18-11.52-13-12.29c-.84-.08-1.68-.12-2.47-.12-6.82,0-11.4,3-12.89,8.51a23,23,0,0,0-.88,6.13q0,4.18,0,8.39v2.47m12.25-43.39a64.24,64.24,0,0,0-10.82.95,26.93,26.93,0,0,0-13.1,5.86,24.38,24.38,0,0,0-6.9,10,48.28,48.28,0,0,0-2.88,17.72c-.1,19.67,0,39.34,0,59a36.31,36.31,0,0,0,.38,5.61c.55,3.66,2.57,6.43,7.22,7.53a7.79,7.79,0,0,1,1,.39h10.11c.23-.08.45-.19.68-.25a3.33,3.33,0,0,0,2.93-3c.07-.71.11-1.42.11-2.12,0-7.71,0-15.42,0-23.12,0-1.77.13-1.88,2.22-2.17a72.51,72.51,0,0,0,21.76-6.3c9.24-4.46,16.08-10.65,20.37-18.69,3.61-6.78,4.84-13.92,5.09-21.2A24.51,24.51,0,0,0,769.69,395c-3.31-8.13-9.5-14.18-19.45-17.42a54,54,0,0,0-16.77-2.61Zm-10,58.95c-1,0-1.19-.27-1.27-1.19,0-.5,0-1,0-1.52V419.33h0c0-4,0-7.91,0-11.86a22.56,22.56,0,0,1,.84-5.87c1.48-5.43,6.08-7.77,11.93-7.77q1.15,0,2.37.12c7.26.71,12,5.18,12.08,11.3.07,5.66-.82,11.23-3.85,16.43-3.83,6.56-10.23,10.45-19,11.86-.91.14-1.84.29-2.77.34Z" transform="translate(-239.67 -48.86)"/></g><g id="e"><path class="cls-2" d="M807.22,453.33a31.8,31.8,0,0,1-8.83-1.17,27,27,0,0,1-12-6.92c-4.35-4.42-6.87-9.71-7.93-16.66a36.23,36.23,0,0,1-.38-6.74,64.94,64.94,0,0,1,3.11-20.14,37.15,37.15,0,0,1,6.89-12.56,34.06,34.06,0,0,1,23.39-12.09c1.16-.11,2.32-.17,3.46-.17a30.72,30.72,0,0,1,17.36,5.17c7,4.7,11.31,11.2,13.08,19.86a27.08,27.08,0,0,1,.38,5.06c0,3.38-1.78,5.87-5.55,7.6a76.67,76.67,0,0,1-10.58,3.61l-13.59,3.9L804,425.54c-2.2.64-2.71,1.07-2.37,3.12l.09.57a11.62,11.62,0,0,0,.85,3.27c1.16,2.51,3.32,3.83,6.6,4.05.46,0,.91,0,1.35,0a24.6,24.6,0,0,0,11.12-2.91c2.59-1.28,5.06-2.76,7.46-4.2,1.24-.74,2.48-1.48,3.74-2.2a22.13,22.13,0,0,1,4.28-2,6.59,6.59,0,0,1,2-.34,5,5,0,0,1,3.33,1.25c2.91,2.48,3.88,5.13,2.94,8.09a16.4,16.4,0,0,1-5.63,7.65c-7.26,6-16.22,9.7-26.63,11A47.56,47.56,0,0,1,807.22,453.33Zm6.53-60.62a9.55,9.55,0,0,0-4.69,1.25,11.31,11.31,0,0,0-2.85,2.15c-3.54,3.78-4.45,8.18-5,12,0,1.21-.05,1.83.32,2.2a1,1,0,0,0,.76.29,6.72,6.72,0,0,0,1.49-.3l2.18-.6,7-1.93,4.66-1.3,5.07-1.42c.63-.17,2.12-.58,1.81-2.06a13.23,13.23,0,0,0-4.23-7.82A10.21,10.21,0,0,0,813.75,392.71Z" transform="translate(-239.67 -48.86)"/><path d="M815,376.38v1a30.16,30.16,0,0,1,17.08,5.09c6.92,4.62,11.13,11,12.87,19.54a26.78,26.78,0,0,1,.37,5c0,3.2-1.64,5.47-5.26,7.13a75.76,75.76,0,0,1-10.55,3.6l-13.64,3.92-12,3.43c-2.38.69-3.11,1.32-2.72,3.68l.09.56a12.09,12.09,0,0,0,.88,3.41c1.23,2.65,3.6,4.11,7,4.34.46,0,.92,0,1.38,0a25.13,25.13,0,0,0,11.34-3c2.61-1.3,5.09-2.78,7.49-4.22,1.22-.73,2.48-1.48,3.74-2.2a22.58,22.58,0,0,1,4.18-1.95,6.53,6.53,0,0,1,1.88-.31,4.45,4.45,0,0,1,3,1.13c2.75,2.34,3.66,4.81,2.79,7.56a16,16,0,0,1-5.47,7.42c-7.18,5.93-16.06,9.59-26.38,10.87a46.4,46.4,0,0,1-5.9.4,31.15,31.15,0,0,1-8.68-1.15,26.54,26.54,0,0,1-11.75-6.79c-4.26-4.34-6.74-9.55-7.79-16.38a36.31,36.31,0,0,1-.37-6.67,64.07,64.07,0,0,1,3.09-20,36.63,36.63,0,0,1,6.79-12.38,33.49,33.49,0,0,1,23.06-11.92c1.14-.11,2.29-.17,3.4-.17v-1m-12.7,34.72a6.69,6.69,0,0,0,1.63-.32l2.44-.67,6.78-1.86,4.68-1.31,5-1.4c.64-.18,2.58-.72,2.17-2.66a13.89,13.89,0,0,0-4.4-8.09,10.68,10.68,0,0,0-6.86-2.58,10,10,0,0,0-4.93,1.31,12.05,12.05,0,0,0-3,2.25c-3.47,3.7-4.53,8.08-5.16,12.27v.11c0,1.18-.06,2,.47,2.51a1.5,1.5,0,0,0,1.12.44M815,376.38c-1.15,0-2.31.06-3.5.17a34.34,34.34,0,0,0-23.72,12.27,37.62,37.62,0,0,0-7,12.72,65.51,65.51,0,0,0-3.14,20.29,38.13,38.13,0,0,0,.38,6.83c1,6.19,3.19,12,8.07,16.93a27.38,27.38,0,0,0,12.19,7.05,32.06,32.06,0,0,0,9,1.19,49,49,0,0,0,6-.4c10.45-1.3,19.47-5,26.89-11.1a17.23,17.23,0,0,0,5.79-7.88c1.06-3.37-.24-6.2-3.1-8.63a5.48,5.48,0,0,0-3.65-1.37,7.2,7.2,0,0,0-2.18.36,23.32,23.32,0,0,0-4.38,2c-3.72,2.13-7.27,4.46-11.17,6.39a24.28,24.28,0,0,1-10.9,2.86c-.43,0-.87,0-1.31,0-3.05-.2-5.1-1.41-6.19-3.76a13.48,13.48,0,0,1-.89-3.71c-.28-1.69,0-2,2-2.55l25.6-7.36A76.31,76.31,0,0,0,840.44,415c3.9-1.78,5.89-4.4,5.85-8a27.06,27.06,0,0,0-.39-5.16c-1.62-7.94-5.48-14.95-13.29-20.17A31.24,31.24,0,0,0,815,376.38ZM802.27,410.1c-.62,0-.63-.48-.59-1.91.58-3.85,1.5-8.12,4.9-11.74a10.8,10.8,0,0,1,2.72-2.05,9,9,0,0,1,4.45-1.19,9.76,9.76,0,0,1,6.22,2.34,12.72,12.72,0,0,1,4.06,7.54c.2.92-.56,1.24-1.46,1.48l-9.72,2.72c-3.07.85-6.15,1.68-9.22,2.52a5.91,5.91,0,0,1-1.36.29Z" transform="translate(-239.67 -48.86)"/></g><g id="r"><path class="cls-2" d="M872.17,456a27.88,27.88,0,0,1-8.43-1.2,9.89,9.89,0,0,1-7.22-7.55,16.09,16.09,0,0,1-.47-3.81q0-27.53,0-55.05c0-3.38,1.78-6.06,5.44-8.18a18.67,18.67,0,0,1,9.46-2.46c.64,0,1.3,0,2,.09,1.87.16,5,.93,5.21,4.26,0,.57,0,1.13.08,1.7,0,1.23.1,2.5.22,3.75l0,.31,1,.39,1-.76q.81-.66,1.65-1.29a42.94,42.94,0,0,1,10.09-5.79,19.32,19.32,0,0,1,7.14-1.42h.44a6.63,6.63,0,0,1,5.15,2.28,10.9,10.9,0,0,1,2.34,5.89,16.58,16.58,0,0,1,0,3.54c-.18,2.07-1.46,3.48-3.8,4.18a94.87,94.87,0,0,0-11.18,4,29.35,29.35,0,0,0-8.71,5.42,8.74,8.74,0,0,0-2.93,6.64q0,15,0,30v10.49a9.37,9.37,0,0,0,0,1.06c.06,1-.47,1.68-1.66,2.27a10.08,10.08,0,0,1-3.67,1.08C874.25,456,873.19,456,872.17,456Z" transform="translate(-239.67 -48.86)"/><path d="M870.94,378.25h0q.94,0,1.92.09c2.08.18,4.6,1,4.75,3.79,0,.57,0,1.14.08,1.71,0,1.23.1,2.5.22,3.76l.06.62.58.22.21.08.22.09.53.2.45-.35.75-.6c.53-.42,1.07-.85,1.62-1.26a42.53,42.53,0,0,1,10-5.73,19,19,0,0,1,7-1.38h.43a6.14,6.14,0,0,1,4.78,2.11,10,10,0,0,1,2.22,5.63,15.48,15.48,0,0,1,0,3.42c-.16,1.88-1.29,3.11-3.44,3.76a95.39,95.39,0,0,0-11.24,4,29.64,29.64,0,0,0-8.85,5.52,9.19,9.19,0,0,0-3.09,7q0,15,0,30v10.43a10.34,10.34,0,0,0,0,1.11c0,.52-.1,1.15-1.38,1.78a9.5,9.5,0,0,1-3.49,1c-1.07.09-2.12.13-3.12.13a27.23,27.23,0,0,1-8.29-1.18,9.33,9.33,0,0,1-6.89-7.19,15.59,15.59,0,0,1-.45-3.69c0-17.57,0-36.3,0-55.05,0-3.19,1.69-5.72,5.19-7.74a18.15,18.15,0,0,1,9.21-2.4m0-1a19.12,19.12,0,0,0-9.71,2.53c-3.61,2.09-5.69,4.88-5.69,8.61q0,27.53,0,55.05a16.78,16.78,0,0,0,.48,3.93,10.37,10.37,0,0,0,7.56,7.91,28.69,28.69,0,0,0,8.59,1.22c1.06,0,2.13-.05,3.2-.13a10.55,10.55,0,0,0,3.85-1.14,2.82,2.82,0,0,0,1.94-2.74c0-.51,0-1,0-1.52,0-13.33,0-26.67,0-40a8.26,8.26,0,0,1,2.78-6.28,29.31,29.31,0,0,1,8.57-5.33,95.9,95.9,0,0,1,11.12-4c2.62-.79,4-2.41,4.15-4.62a17,17,0,0,0-.06-3.64,11.13,11.13,0,0,0-2.46-6.16,7.1,7.1,0,0,0-5.51-2.45h-.45a20,20,0,0,0-7.32,1.45,43.58,43.58,0,0,0-10.21,5.86c-.82.61-1.59,1.25-2.39,1.88l-.43-.17c-.17-1.81-.21-3.63-.3-5.44-.17-3.09-2.66-4.47-5.67-4.73-.67-.06-1.34-.09-2-.09Z" transform="translate(-239.67 -48.86)"/></g><g id="s"><path class="cls-2" d="M938.8,461.2a53.84,53.84,0,0,1-30.28-9.2,21.85,21.85,0,0,1-4.76-4.5c-2.26-2.85-2.78-5.67-1.6-8.64a13,13,0,0,1,4-5.64,7.22,7.22,0,0,1,4.4-1.61,6.72,6.72,0,0,1,3.64,1.12,37.06,37.06,0,0,1,3.73,2.69,67.53,67.53,0,0,0,7,5.1,23.58,23.58,0,0,0,12.77,3.7c.86,0,1.74-.05,2.62-.13,3-.3,5.33-1.57,6.26-3.48a5.42,5.42,0,0,0-.64-5.38,13.91,13.91,0,0,0-3-3.26,77.07,77.07,0,0,0-6.58-4.63l-2.14-1.41c-5.11-3.43-10-6.86-14-11.19-5.24-5.69-7.64-12.07-7.11-19a18.1,18.1,0,0,1,6.22-12.7,27.93,27.93,0,0,1,13-6.11,46.29,46.29,0,0,1,9.43-1A39.6,39.6,0,0,1,964.36,383c5.4,3.66,8.46,8.39,9.1,14.05a4,4,0,0,1-2,4.1A19.09,19.09,0,0,1,961.09,404c-.72,0-1.46,0-2.21-.1a5.2,5.2,0,0,1-3.62-1.93,24.65,24.65,0,0,1-2-2.85c-.29-.45-.58-.9-.89-1.34l-.33-.5c-.27-.41-.56-.84-.89-1.25a9.52,9.52,0,0,0-8-3.69,18.44,18.44,0,0,0-2.48.18,6.19,6.19,0,0,0-4.38,2.66,5.34,5.34,0,0,0-.7,4.44,7.84,7.84,0,0,0,1.4,2.85,29.26,29.26,0,0,0,5.81,5.49c1.93,1.42,3.94,2.81,5.89,4.16a133.38,133.38,0,0,1,11.57,8.65c4.45,3.88,7.27,7.46,8.87,11.27,3.55,8.44,1.22,16.79-6.22,22.35-4.64,3.46-10.33,5.58-17.38,6.48a51,51,0,0,1-6.35.36Z" transform="translate(-239.67 -48.86)"/><path d="M941.8,376.44a39.07,39.07,0,0,1,22.28,7c5.27,3.57,8.26,8.18,8.89,13.69a3.46,3.46,0,0,1-1.79,3.62,18.65,18.65,0,0,1-10.09,2.74c-.7,0-1.43,0-2.17-.1a4.71,4.71,0,0,1-3.28-1.76,25.34,25.34,0,0,1-2-2.78c-.29-.46-.59-.92-.9-1.37-.11-.16-.22-.32-.32-.48-.29-.43-.58-.87-.92-1.3a10.14,10.14,0,0,0-8.43-3.87,19.57,19.57,0,0,0-2.55.18,6.66,6.66,0,0,0-4.72,2.88,5.86,5.86,0,0,0-.78,4.86,8.64,8.64,0,0,0,1.5,3,29.42,29.42,0,0,0,5.91,5.58c1.93,1.42,3.95,2.82,5.9,4.17a132.3,132.3,0,0,1,11.52,8.62c4.4,3.83,7.17,7.35,8.74,11.08,3.45,8.22,1.19,16.35-6.06,21.76-4.57,3.41-10.18,5.5-17.14,6.38a49.79,49.79,0,0,1-6.27.36h-.33a53.28,53.28,0,0,1-30-9.12,20.82,20.82,0,0,1-4.65-4.39c-2.15-2.69-2.65-5.36-1.54-8.14a12.4,12.4,0,0,1,3.89-5.43,6.64,6.64,0,0,1,4.09-1.51,6.22,6.22,0,0,1,3.37,1,37.71,37.71,0,0,1,3.68,2.65,67.07,67.07,0,0,0,7.07,5.14,24,24,0,0,0,13,3.78c.88,0,1.77-.05,2.67-.14,3.23-.31,5.65-1.68,6.66-3.75a5.9,5.9,0,0,0-.67-5.87,14.23,14.23,0,0,0-3.14-3.37,77.63,77.63,0,0,0-6.63-4.67l-2.13-1.41c-5.09-3.41-10-6.82-13.94-11.11-5.15-5.58-7.5-11.84-7-18.61a17.55,17.55,0,0,1,6-12.35,27.39,27.39,0,0,1,12.82-6,46.1,46.1,0,0,1,9.33-1m0-1a46.79,46.79,0,0,0-9.53,1A28.36,28.36,0,0,0,919,382.69a18.73,18.73,0,0,0-6.38,13c-.54,7.16,1.94,13.6,7.25,19.36,4,4.34,9,7.84,14.12,11.26,2.93,2,6,3.83,8.67,6a13.39,13.39,0,0,1,2.94,3.14c2.53,3.95.2,7.56-5.24,8.09-.88.08-1.73.13-2.58.13a23,23,0,0,1-12.5-3.62,65.09,65.09,0,0,1-7-5.07,38.63,38.63,0,0,0-3.78-2.72,7.23,7.23,0,0,0-3.91-1.2,7.68,7.68,0,0,0-4.71,1.72,13.51,13.51,0,0,0-4.2,5.85c-1.31,3.29-.57,6.3,1.68,9.13a22,22,0,0,0,4.87,4.6,54.12,54.12,0,0,0,30.56,9.29h.34a50.39,50.39,0,0,0,6.39-.37c6.64-.84,12.65-2.86,17.62-6.57,8.23-6.15,9.74-15,6.38-22.94-1.84-4.39-5.14-8.09-9-11.45-5.38-4.69-11.66-8.57-17.49-12.84a28.57,28.57,0,0,1-5.71-5.4,7.5,7.5,0,0,1-1.32-2.67,5.23,5.23,0,0,1,4.67-6.47,18.51,18.51,0,0,1,2.41-.18,9.11,9.11,0,0,1,7.65,3.5c.44.55.8,1.14,1.2,1.72a45.76,45.76,0,0,0,2.94,4.23,5.76,5.76,0,0,0,4,2.11c.77.06,1.52.1,2.26.1a19.59,19.59,0,0,0,10.62-2.89A4.45,4.45,0,0,0,974,397c-.66-5.85-3.78-10.66-9.32-14.41a39.93,39.93,0,0,0-22.84-7.15Z" transform="translate(-239.67 -48.86)"/></g></g><g id="Copyright"><circle class="cls-3" cx="771.83" cy="316.64" r="23"/><text class="cls-4" transform="translate(762.82 322.92) scale(0.97 1)">R</text></g><g id="Star"><path d="M822.07,135.66c.48,1.48-.65,2.09-1.53,2.63-6.55,4-11.8,9.55-18.19,13.68-16.12,10.43-30.66,22.81-46.81,33.18-4.47,2.88-4.95,5.92-3.4,10.46,8.13,23.73,16,47.54,23.94,71.33a27.78,27.78,0,0,1,.83,3.1,1.33,1.33,0,0,1-.91,1.71,1.46,1.46,0,0,1-1.78-1,17.26,17.26,0,0,1-1-2.51q-12.57-37.74-25.15-75.47c-1.2-3.55-.5-6,2.91-8.19,16.88-10.93,32.36-23.6,49.14-34.68,5.7-3.77,10.67-8.55,16.54-12.18C818.32,136.77,819.62,134.79,822.07,135.66Z" transform="translate(-239.67 -48.86)"/><path d="M703.88,48.86l26.73,80.26-2.82.83L701,49.72Z" transform="translate(-239.67 -48.86)"/><path d="M629.32,274.18c.2-2.27,1.81-2.79,2.95-3.61,14.18-10.19,28.43-20.3,42.58-30.53,6-4.34,11.79-9,17.77-13.34,1.22-.89,3-2.83,4.36-1.3,1.62,1.77-1,2.63-2.18,3.53-11.31,8.72-23.35,16.56-34.83,25-8.35,6.17-16.7,12.31-25.31,18.15C633.19,273.12,631.86,274.55,629.32,274.18Z" transform="translate(-239.67 -48.86)"/><path class="cls-5" d="M621.55,133.39c13,0,25.91-.09,38.87.05,3.89,0,6.25-.81,7.52-4.75,7.57-23.55,15.4-47,23.22-70.51.93-2.79,1.18-7.6,3.8-7.62,3.07,0,3,4.68,3.94,7.43,7.89,23.65,15.77,47.3,23.44,71,1.32,4.07,4.07,4.45,7.8,4.44q38.58-.1,77.16,0c2,0,5-1,5.77.9,1,2.22-2.24,2.88-3.76,4-12.58,9.21-25.34,18.21-38,27.31-8.74,6.28-17.32,12.78-26.32,18.75-3,2-3,4.16-2.06,7,3.79,11.4,7.5,22.82,11.29,34.22,4.52,13.62,9.11,27.22,13.62,40.85.48,1.44,1.91,3.33.18,4.39s-3.15-.79-4.43-1.71q-27.63-19.81-55.18-39.73c-12.75-9.24-12.9-9.51-25.93-.36-17.94,12.61-35.57,25.61-53.33,38.44-1.21.88-2.44,1.73-3.7,2.52-1,.67-2.18,2-3.47,1.05s-.23-2.33.16-3.48c5-15.15,10.1-30.28,15.09-45.44,3.42-10.39,6.57-20.86,10.17-31.19,1.09-3.12.41-4.86-2.29-6.73q-24.08-16.72-48-33.67c-6.06-4.3-11.93-8.84-17.85-13.3-1-.73-2.64-1.38-1.92-2.87s2.35-.9,3.61-.9C594.5,133.38,608,133.4,621.55,133.39Z" transform="translate(-239.67 -48.86)"/></g><text id="TRADE" class="cls-6" transform="translate(257.49 185.1) scale(1.07 1)">TRADE</text><text class="cls-6" transform="translate(558.49 185.1) scale(1.07 1)">MARK</text></g></svg>